<svg id="visual" viewBox="0 0 960 540" width="960" height="540" xmlns="http://www.w3.org/2000/svg" xmlns:xlink="http://www.w3.org/1999/xlink" version="1.1"><rect x="0" y="0" width="960" height="540" fill="#001220"></rect><defs><linearGradient id="grad1_0" x1="43.8%" y1="0%" x2="100%" y2="100%"><stop offset="14.444444444444446%" stop-color="#001220" stop-opacity="1"></stop><stop offset="85.55555555555554%" stop-color="#001220" stop-opacity="1"></stop></linearGradient></defs><defs><linearGradient id="grad2_0" x1="0%" y1="0%" x2="56.3%" y2="100%"><stop offset="14.444444444444446%" stop-color="#001220" stop-opacity="1"></stop><stop offset="85.55555555555554%" stop-color="#001220" stop-opacity="1"></stop></linearGradient></defs><g transform="translate(960, 0)"><path d="M0 405C-51.6 391.6 -103.2 378.3 -147.3 355.7C-191.5 333.1 -228.2 301.3 -268 268C-307.8 234.7 -350.8 199.9 -374.2 155C-397.5 110.1 -401.3 55 -405 0L0 0Z" fill="#009473"></path></g><g transform="translate(0, 540)"><path d="M0 -405C53 -399.5 106.1 -394.1 155 -374.2C203.9 -354.3 248.8 -319.9 278.6 -278.6C308.4 -237.3 323.3 -189.2 341.8 -141.6C360.4 -94 382.7 -47 405 0L0 0Z" fill="#009473"></path></g></svg>